<svg id="visual" viewBox="0 0 900 600" width="900" height="600" xmlns="http://www.w3.org/2000/svg" xmlns:xlink="http://www.w3.org/1999/xlink" version="1.1"><rect x="0" y="0" width="900" height="600" fill="#4ade80"></rect><defs><linearGradient id="grad1_0" x1="33.3%" y1="0%" x2="100%" y2="100%"><stop offset="20%" stop-color="#4ade80" stop-opacity="1"></stop><stop offset="80%" stop-color="#4ade80" stop-opacity="1"></stop></linearGradient></defs><defs><linearGradient id="grad2_0" x1="0%" y1="0%" x2="66.7%" y2="100%"><stop offset="20%" stop-color="#4ade80" stop-opacity="1"></stop><stop offset="80%" stop-color="#4ade80" stop-opacity="1"></stop></linearGradient></defs><g transform="translate(900, 0)"><path d="M0 486.7C-63.6 472.4 -127.3 458.1 -177.2 427.8C-227.1 397.5 -263.3 351.2 -311.1 311.1C-359 271 -418.5 237.1 -449.7 186.3C-480.9 135.4 -483.8 67.7 -486.7 0L0 0Z" fill="#fef9c3"></path></g><g transform="translate(0, 600)"><path d="M0 -486.7C57.7 -465.9 115.4 -445.1 176 -425C236.7 -404.8 300.4 -385.4 344.2 -344.2C388 -303 411.9 -240.1 432.4 -179.1C452.8 -118.1 469.8 -59.1 486.7 0L0 0Z" fill="#fef9c3"></path></g></svg>