<svg id="visual" viewBox="0 0 900 600" width="900" height="600" xmlns="http://www.w3.org/2000/svg" xmlns:xlink="http://www.w3.org/1999/xlink" version="1.1"><path d="M0 357L129 424L257 392L386 411L514 412L643 379L771 405L900 405L900 601L771 601L643 601L514 601L386 601L257 601L129 601L0 601Z" fill="#4ade80"></path><path d="M0 421L129 474L257 418L386 450L514 474L643 475L771 431L900 421L900 601L771 601L643 601L514 601L386 601L257 601L129 601L0 601Z" fill="#3fcf72"></path><path d="M0 502L129 463L257 489L386 481L514 481L643 456L771 456L900 495L900 601L771 601L643 601L514 601L386 601L257 601L129 601L0 601Z" fill="#33c065"></path><path d="M0 498L129 529L257 492L386 507L514 485L643 543L771 540L900 542L900 601L771 601L643 601L514 601L386 601L257 601L129 601L0 601Z" fill="#26b157"></path><path d="M0 535L129 554L257 546L386 545L514 532L643 572L771 537L900 541L900 601L771 601L643 601L514 601L386 601L257 601L129 601L0 601Z" fill="#16a34a"></path></svg>