<svg id="visual" viewBox="0 0 960 540" width="960" height="540" xmlns="http://www.w3.org/2000/svg" xmlns:xlink="http://www.w3.org/1999/xlink" version="1.1"><path d="M0 60L14.5 58.3C29 56.7 58 53.3 87.2 53.3C116.3 53.3 145.7 56.7 174.8 62.8C204 69 233 78 262 85.3C291 92.7 320 98.3 349 95.7C378 93 407 82 436.2 83.7C465.3 85.3 494.7 99.7 523.8 105.2C553 110.7 582 107.3 611 111.8C640 116.3 669 128.7 698 134C727 139.3 756 137.7 785.2 137.7C814.3 137.7 843.7 139.3 872.8 136.7C902 134 931 127 945.5 123.5L960 120L960 0L945.5 0C931 0 902 0 872.8 0C843.7 0 814.3 0 785.2 0C756 0 727 0 698 0C669 0 640 0 611 0C582 0 553 0 523.8 0C494.7 0 465.3 0 436.2 0C407 0 378 0 349 0C320 0 291 0 262 0C233 0 204 0 174.8 0C145.7 0 116.3 0 87.2 0C58 0 29 0 14.5 0L0 0Z" fill="#52be74"></path><path d="M0 125L14.5 125C29 125 58 125 87.2 130.5C116.3 136 145.7 147 174.8 150.7C204 154.3 233 150.7 262 151.5C291 152.3 320 157.7 349 158.5C378 159.3 407 155.7 436.2 154.8C465.3 154 494.7 156 523.8 161.5C553 167 582 176 611 181.3C640 186.7 669 188.3 698 191.8C727 195.3 756 200.7 785.2 208.8C814.3 217 843.7 228 872.8 219C902 210 931 181 945.5 166.5L960 152L960 118L945.5 121.5C931 125 902 132 872.8 134.7C843.7 137.3 814.3 135.7 785.2 135.7C756 135.7 727 137.3 698 132C669 126.7 640 114.3 611 109.8C582 105.3 553 108.7 523.8 103.2C494.7 97.7 465.3 83.3 436.2 81.7C407 80 378 91 349 93.7C320 96.3 291 90.7 262 83.3C233 76 204 67 174.8 60.8C145.7 54.7 116.3 51.3 87.2 51.3C58 51.3 29 54.7 14.5 56.3L0 58Z" fill="#39b05f"></path><path d="M0 271L14.5 269.2C29 267.3 58 263.7 87.2 259.2C116.3 254.7 145.7 249.3 174.8 264.7C204 280 233 316 262 331.3C291 346.7 320 341.3 349 327C378 312.7 407 289.3 436.2 286.7C465.3 284 494.7 302 523.8 304.7C553 307.3 582 294.7 611 296.3C640 298 669 314 698 315.8C727 317.7 756 305.3 785.2 308.2C814.3 311 843.7 329 872.8 327.2C902 325.3 931 303.7 945.5 292.8L960 282L960 150L945.5 164.5C931 179 902 208 872.8 217C843.7 226 814.3 215 785.2 206.8C756 198.7 727 193.3 698 189.8C669 186.3 640 184.7 611 179.3C582 174 553 165 523.8 159.5C494.7 154 465.3 152 436.2 152.8C407 153.7 378 157.3 349 156.5C320 155.7 291 150.3 262 149.5C233 148.7 204 152.3 174.8 148.7C145.7 145 116.3 134 87.2 128.5C58 123 29 123 14.5 123L0 123Z" fill="#16a34a"></path><path d="M0 336L14.5 336.8C29 337.7 58 339.3 87.2 334.8C116.3 330.3 145.7 319.7 174.8 336.8C204 354 233 399 262 418.8C291 438.7 320 433.3 349 409C378 384.7 407 341.3 436.2 329.5C465.3 317.7 494.7 337.3 523.8 343.7C553 350 582 343 611 353.8C640 364.7 669 393.3 698 399.7C727 406 756 390 785.2 382.8C814.3 375.7 843.7 377.3 872.8 377.3C902 377.3 931 375.7 945.5 374.8L960 374L960 280L945.5 290.8C931 301.7 902 323.3 872.8 325.2C843.7 327 814.3 309 785.2 306.2C756 303.3 727 315.7 698 313.8C669 312 640 296 611 294.3C582 292.7 553 305.3 523.8 302.7C494.7 300 465.3 282 436.2 284.7C407 287.3 378 310.7 349 325C320 339.3 291 344.7 262 329.3C233 314 204 278 174.8 262.7C145.7 247.3 116.3 252.7 87.2 257.2C58 261.7 29 265.3 14.5 267.2L0 269Z" fill="#118d41"></path><path d="M0 541L14.5 541C29 541 58 541 87.2 541C116.3 541 145.7 541 174.8 541C204 541 233 541 262 541C291 541 320 541 349 541C378 541 407 541 436.2 541C465.3 541 494.7 541 523.8 541C553 541 582 541 611 541C640 541 669 541 698 541C727 541 756 541 785.2 541C814.3 541 843.7 541 872.8 541C902 541 931 541 945.5 541L960 541L960 372L945.5 372.8C931 373.7 902 375.3 872.8 375.3C843.7 375.3 814.3 373.7 785.2 380.8C756 388 727 404 698 397.7C669 391.3 640 362.7 611 351.8C582 341 553 348 523.8 341.7C494.7 335.3 465.3 315.7 436.2 327.5C407 339.3 378 382.7 349 407C320 431.3 291 436.7 262 416.8C233 397 204 352 174.8 334.8C145.7 317.7 116.3 328.3 87.2 332.8C58 337.3 29 335.7 14.5 334.8L0 334Z" fill="#0d7838"></path></svg>