<svg id="visual" viewBox="0 0 960 540" width="960" height="540" xmlns="http://www.w3.org/2000/svg" xmlns:xlink="http://www.w3.org/1999/xlink" version="1.1"><path d="M0 411L13.3 412.8C26.7 414.7 53.3 418.3 80 419.7C106.7 421 133.3 420 160 419.8C186.7 419.7 213.3 420.3 240 420.8C266.7 421.3 293.3 421.7 320 425C346.7 428.3 373.3 434.7 400 430.3C426.7 426 453.3 411 480 409.8C506.7 408.7 533.3 421.3 560 420.2C586.7 419 613.3 404 640 404.5C666.7 405 693.3 421 720 426C746.7 431 773.3 425 800 423.8C826.7 422.7 853.3 426.3 880 427.5C906.7 428.7 933.3 427.3 946.7 426.7L960 426L960 541L946.7 541C933.3 541 906.7 541 880 541C853.3 541 826.7 541 800 541C773.3 541 746.7 541 720 541C693.3 541 666.7 541 640 541C613.3 541 586.7 541 560 541C533.3 541 506.7 541 480 541C453.3 541 426.7 541 400 541C373.3 541 346.7 541 320 541C293.3 541 266.7 541 240 541C213.3 541 186.7 541 160 541C133.3 541 106.7 541 80 541C53.3 541 26.7 541 13.3 541L0 541Z" fill="#facc15"></path><path d="M0 434L13.3 436.2C26.7 438.3 53.3 442.7 80 445.7C106.7 448.7 133.3 450.3 160 445.5C186.7 440.7 213.3 429.3 240 424.8C266.7 420.3 293.3 422.7 320 426.5C346.7 430.3 373.3 435.7 400 436.3C426.7 437 453.3 433 480 435.2C506.7 437.3 533.3 445.7 560 450.2C586.7 454.7 613.3 455.3 640 454.5C666.7 453.7 693.3 451.3 720 449.7C746.7 448 773.3 447 800 445.3C826.7 443.7 853.3 441.3 880 435.3C906.7 429.3 933.3 419.7 946.7 414.8L960 410L960 541L946.7 541C933.3 541 906.7 541 880 541C853.3 541 826.7 541 800 541C773.3 541 746.7 541 720 541C693.3 541 666.7 541 640 541C613.3 541 586.7 541 560 541C533.3 541 506.7 541 480 541C453.3 541 426.7 541 400 541C373.3 541 346.7 541 320 541C293.3 541 266.7 541 240 541C213.3 541 186.7 541 160 541C133.3 541 106.7 541 80 541C53.3 541 26.7 541 13.3 541L0 541Z" fill="#d5ce22"></path><path d="M0 451L13.3 451.5C26.7 452 53.3 453 80 449.3C106.7 445.7 133.3 437.3 160 438.2C186.7 439 213.3 449 240 452.5C266.7 456 293.3 453 320 454.5C346.7 456 373.3 462 400 458.3C426.7 454.7 453.3 441.3 480 437.7C506.7 434 533.3 440 560 444.5C586.7 449 613.3 452 640 453C666.7 454 693.3 453 720 450.5C746.7 448 773.3 444 800 447.5C826.7 451 853.3 462 880 463.2C906.7 464.3 933.3 455.7 946.7 451.3L960 447L960 541L946.7 541C933.3 541 906.7 541 880 541C853.3 541 826.7 541 800 541C773.3 541 746.7 541 720 541C693.3 541 666.7 541 640 541C613.3 541 586.7 541 560 541C533.3 541 506.7 541 480 541C453.3 541 426.7 541 400 541C373.3 541 346.7 541 320 541C293.3 541 266.7 541 240 541C213.3 541 186.7 541 160 541C133.3 541 106.7 541 80 541C53.3 541 26.7 541 13.3 541L0 541Z" fill="#b1cd36"></path><path d="M0 485L13.3 480C26.7 475 53.3 465 80 460.3C106.7 455.7 133.3 456.3 160 459.5C186.7 462.7 213.3 468.3 240 468.2C266.7 468 293.3 462 320 461.8C346.7 461.7 373.3 467.3 400 470.8C426.7 474.3 453.3 475.7 480 477.2C506.7 478.7 533.3 480.3 560 478.5C586.7 476.7 613.3 471.3 640 471.7C666.7 472 693.3 478 720 477C746.7 476 773.3 468 800 463.8C826.7 459.7 853.3 459.3 880 459.3C906.7 459.3 933.3 459.7 946.7 459.8L960 460L960 541L946.7 541C933.3 541 906.7 541 880 541C853.3 541 826.7 541 800 541C773.3 541 746.7 541 720 541C693.3 541 666.7 541 640 541C613.3 541 586.7 541 560 541C533.3 541 506.7 541 480 541C453.3 541 426.7 541 400 541C373.3 541 346.7 541 320 541C293.3 541 266.7 541 240 541C213.3 541 186.7 541 160 541C133.3 541 106.7 541 80 541C53.3 541 26.7 541 13.3 541L0 541Z" fill="#8fca4a"></path><path d="M0 483L13.3 480.7C26.7 478.3 53.3 473.7 80 472.8C106.7 472 133.3 475 160 479.5C186.7 484 213.3 490 240 492.7C266.7 495.3 293.3 494.7 320 489.7C346.7 484.7 373.3 475.3 400 472.3C426.7 469.3 453.3 472.7 480 476.3C506.7 480 533.3 484 560 482.7C586.7 481.3 613.3 474.7 640 473.2C666.7 471.7 693.3 475.3 720 476.5C746.7 477.7 773.3 476.3 800 478C826.7 479.7 853.3 484.3 880 487.8C906.7 491.3 933.3 493.7 946.7 494.8L960 496L960 541L946.7 541C933.3 541 906.7 541 880 541C853.3 541 826.7 541 800 541C773.3 541 746.7 541 720 541C693.3 541 666.7 541 640 541C613.3 541 586.7 541 560 541C533.3 541 506.7 541 480 541C453.3 541 426.7 541 400 541C373.3 541 346.7 541 320 541C293.3 541 266.7 541 240 541C213.3 541 186.7 541 160 541C133.3 541 106.7 541 80 541C53.3 541 26.7 541 13.3 541L0 541Z" fill="#6dc65e"></path><path d="M0 509L13.3 510.5C26.7 512 53.3 515 80 511.7C106.7 508.3 133.3 498.7 160 494C186.7 489.3 213.3 489.7 240 491.8C266.7 494 293.3 498 320 502.5C346.7 507 373.3 512 400 509.3C426.7 506.7 453.3 496.3 480 491.3C506.7 486.3 533.3 486.7 560 491C586.7 495.3 613.3 503.7 640 503.7C666.7 503.7 693.3 495.3 720 493C746.7 490.7 773.3 494.3 800 498.7C826.7 503 853.3 508 880 509.5C906.7 511 933.3 509 946.7 508L960 507L960 541L946.7 541C933.3 541 906.7 541 880 541C853.3 541 826.7 541 800 541C773.3 541 746.7 541 720 541C693.3 541 666.7 541 640 541C613.3 541 586.7 541 560 541C533.3 541 506.7 541 480 541C453.3 541 426.7 541 400 541C373.3 541 346.7 541 320 541C293.3 541 266.7 541 240 541C213.3 541 186.7 541 160 541C133.3 541 106.7 541 80 541C53.3 541 26.7 541 13.3 541L0 541Z" fill="#48c070"></path><path d="M0 531L13.3 527C26.7 523 53.3 515 80 511.3C106.7 507.7 133.3 508.3 160 510.3C186.7 512.3 213.3 515.7 240 517C266.7 518.3 293.3 517.7 320 519.7C346.7 521.7 373.3 526.3 400 524.3C426.7 522.3 453.3 513.7 480 511.3C506.7 509 533.3 513 560 515.2C586.7 517.3 613.3 517.7 640 520C666.7 522.3 693.3 526.7 720 526C746.7 525.3 773.3 519.7 800 515.3C826.7 511 853.3 508 880 508.3C906.7 508.7 933.3 512.3 946.7 514.2L960 516L960 541L946.7 541C933.3 541 906.7 541 880 541C853.3 541 826.7 541 800 541C773.3 541 746.7 541 720 541C693.3 541 666.7 541 640 541C613.3 541 586.7 541 560 541C533.3 541 506.7 541 480 541C453.3 541 426.7 541 400 541C373.3 541 346.7 541 320 541C293.3 541 266.7 541 240 541C213.3 541 186.7 541 160 541C133.3 541 106.7 541 80 541C53.3 541 26.7 541 13.3 541L0 541Z" fill="#10b981"></path></svg>