<svg id="visual" viewBox="0 0 900 600" width="900" height="600" xmlns="http://www.w3.org/2000/svg" xmlns:xlink="http://www.w3.org/1999/xlink" version="1.1"><path d="M0 408L21.5 410.2C43 412.3 86 416.7 128.8 431.3C171.7 446 214.3 471 257.2 470.8C300 470.7 343 445.3 385.8 448.5C428.7 451.7 471.3 483.3 514.2 495C557 506.7 600 498.3 642.8 483.5C685.7 468.7 728.3 447.3 771.2 437.8C814 428.3 857 430.7 878.5 431.8L900 433L900 601L878.5 601C857 601 814 601 771.2 601C728.3 601 685.7 601 642.8 601C600 601 557 601 514.2 601C471.3 601 428.7 601 385.8 601C343 601 300 601 257.2 601C214.3 601 171.7 601 128.8 601C86 601 43 601 21.5 601L0 601Z" fill="#86efac" stroke-linecap="round" stroke-linejoin="miter"></path></svg>