<svg id="visual" viewBox="0 0 960 540" width="960" height="540" xmlns="http://www.w3.org/2000/svg" xmlns:xlink="http://www.w3.org/1999/xlink" version="1.1"><rect x="0" y="0" width="960" height="540" fill="#4ade80"></rect><defs><linearGradient id="grad1_0" x1="43.8%" y1="0%" x2="100%" y2="100%"><stop offset="14.444444444444446%" stop-color="#4ade80" stop-opacity="1"></stop><stop offset="85.55555555555554%" stop-color="#4ade80" stop-opacity="1"></stop></linearGradient></defs><defs><linearGradient id="grad2_0" x1="0%" y1="0%" x2="56.3%" y2="100%"><stop offset="14.444444444444446%" stop-color="#4ade80" stop-opacity="1"></stop><stop offset="85.55555555555554%" stop-color="#4ade80" stop-opacity="1"></stop></linearGradient></defs><g transform="translate(960, 0)"><path d="M0 486C-52.5 440.3 -105 394.5 -150 362.2C-195 329.8 -232.6 310.9 -287.1 287.1C-341.6 263.3 -413 234.6 -449 186C-485 137.3 -485.5 68.7 -486 0L0 0Z" fill="#fef9c3"></path></g><g transform="translate(0, 540)"><path d="M0 -486C51.2 -450.2 102.4 -414.3 164.2 -396.3C225.9 -378.4 298.2 -378.3 343.7 -343.7C389.1 -309 407.6 -239.8 426.8 -176.8C446.1 -113.8 466 -56.9 486 0L0 0Z" fill="#fef9c3"></path></g></svg>